<?xml version="1.0" encoding="UTF-8"?>
<svg id="a" data-name="圖層 2" xmlns="http://www.w3.org/2000/svg" viewBox="0 0 1373.38 1586.91">
  <path d="M680.26,1567c-.16-.16-3.76-3.77-11.7-10.23-3.88-3.16-8.57-6.76-13.93-10.69-1.05-.78-2.17-1.58-3.29-2.39-.65-.46-1.3-.92-1.97-1.4-.74-.53-1.5-1.08-2.3-1.63-1.46-1.02-2.94-2.05-4.46-3.11-1.14-.79-2.31-1.61-3.49-2.44l-2.19-1.46c-1.32-.88-2.67-1.78-4.08-2.69l-.13-.08c-8.37-5.56-16.61-10.79-25.2-15.99l-.22-.13-.21-.14c-.38-.26-.86-.54-1.43-.88-.29-.17-.58-.34-.87-.52-.34-.2-.69-.42-1.04-.63-.76-.47-1.49-.91-2.15-1.26l-.24-.13-.24-.15c-2.75-1.71-5.62-3.36-8.65-5.11l-.8-.46c-.94-.57-1.9-1.11-2.87-1.67-.66-.38-1.32-.75-1.98-1.14-6.27-3.56-11.17-6.32-15.89-8.94-2.43-1.38-4.34-2.43-6.1-3.34l-2.15-1.17c-1.47-.81-2.96-1.62-4.45-2.41-4.07-2.19-7.72-4.12-11.21-5.93l-3.01-1.57c-2.18-1.11-4.35-2.22-6.57-3.38-1.58-.84-3.16-1.63-4.74-2.43-.84-.42-1.68-.84-2.52-1.27-6.61-3.35-13.61-6.81-20.81-10.27-2.44-1.19-4.88-2.36-7.34-3.54l-4.1-1.97c-9.55-4.54-19.76-9.28-30.31-14.04-6.04-2.72-11.07-4.96-15.83-7.06-2.68-1.21-5.27-2.34-7.93-3.5l-.76-.33c-2.47-1.04-4.96-2.1-7.46-3.17-2.22-.94-4.45-1.89-6.67-2.83-11.74-4.99-24.18-10.15-36.98-15.35l-7.47-2.96c-5.33-2.11-10.73-4.25-16.23-6.41h-.03l-1.66-.64c-4.51-1.81-9.44-3.71-15.51-6l-3.67-1.4c-4.09-1.56-8.23-3.14-12.43-4.71-8.03-2.99-15.32-5.7-22.86-8.39-9.77-3.58-19.45-7.05-28.83-10.34-11.47-4.04-21.67-7.95-31.21-11.95-2.02-.85-4.05-1.7-6.03-2.54-.78-.33-1.66-.68-2.55-1.03l-.22-.09-.21-.1c-1.55-.72-3.11-1.42-4.68-2.12l-2.59-1.17c-2.35-1.05-4.89-2.22-7.93-3.65-2.85-1.33-5.61-2.66-8.39-4.05-4.6-2.25-9.09-4.59-13.44-6.86l-.27-.14c-.83-.46-1.66-.91-2.49-1.37-1.18-.64-2.37-1.28-3.52-1.94-3.86-2.1-8.02-4.46-13.07-7.44l-.12-.07c-2.66-1.61-5.42-3.27-8.12-4.97l-.76-.46c-1.86-1.17-3.67-2.36-5.42-3.53l-.58-.36c-1.51-.95-2.93-1.92-4.29-2.85l-1.97-1.33c-1.85-1.24-3.76-2.53-5.67-3.89l-.94-.65c-1.69-1.17-3.44-2.39-5.17-3.7-2.16-1.52-4.39-3.17-6.63-4.92-2.55-1.91-5.19-3.98-8.31-6.5-15.77-12.7-30.12-26.26-42.64-40.3-17.98-20-33.35-41.97-45.67-65.27-.72-1.24-1.35-2.47-1.97-3.65-35.73-69.34-47.28-152.35-34.35-246.76,3.14-23.03,7.78-46.93,13.81-71.05,1.16-4.68,2.15-8.56,3.12-12.18l.49-1.8c.69-2.55,1.39-5.11,2.12-7.65.35-1.19.68-2.37,1.02-3.55.5-1.75.99-3.5,1.53-5.29.8-2.72,1.64-5.48,2.49-8.26.48-1.58.97-3.17,1.44-4.75.67-2.22,1.38-4.43,2.09-6.64.39-1.21.78-2.42,1.16-3.64.15-.47.32-.96.49-1.46.14-.41.29-.82.41-1.23l.06-.2c1.71-5.24,3.2-9.63,4.7-13.81.37-1.15.78-2.39,1.3-3.7,4.52-13,9.56-26.33,15.4-40.74,1.44-3.64,2.96-7.34,4.63-11.25.33-.91.7-1.81,1.11-2.7,1.26-3.07,2.57-6.11,3.84-9.06l1.03-2.35c1.05-2.38,2.1-4.77,3.18-7.14.48-1.26,1.06-2.56,1.79-4.04,1.88-4.3,3.9-8.67,5.85-12.9,2.16-4.67,4.39-9.36,6.55-13.89l1.54-3.23c3.6-7.43,6.86-14.5,9.73-21.06l.68-1.53c1.23-2.77,2.4-5.4,3.5-8.06,9.8-23.22,18.06-46.63,24.57-69.65l.27-.98c.45-1.63.89-3.23,1.3-4.87l.05-.19c.92-3.35,1.8-6.68,2.62-9.92l.24-.97c.71-2.88,1.38-5.59,1.98-8.32l.03-.14c.68-2.84,1.31-5.72,1.9-8.55l.03-.12c1.07-4.84,2.07-9.85,3.06-15.33,6.14-33.61,8.73-67.18,7.7-99.79-.05-2.07-.13-4.02-.23-6.17-.18-4.69-.46-9.33-.82-13.88v-.16c-.14-2.09-.31-4.13-.54-6.23l-.02-.19c-.34-3.96-.77-8.1-1.32-12.65-.64-5.58-1.43-11.25-2.42-17.38l-.04-.26c-.1-.59-.19-1.21-.32-1.79l-.05-.23-.04-.23c-8.59-51.49-25.06-91.51-37.37-116.02-13.36-26.61-24.84-41.21-24.96-41.35l-5.46-6.89,6.76-5.63,152.98-127.12,5.38,2.99c26.73,14.85,53.34,27.12,79.09,36.45,43.67,15.82,86.33,23.85,126.77,23.85,24.49,0,48.55-2.95,71.53-8.76,54.1-13.69,93.96-41.32,117.86-62.08,26.05-22.62,39.4-42.27,39.53-42.47l7.5-11.15,7.46,11.17s3.59,5.33,10.58,13.44c25.74,30.01,98.5,99.79,218.16,99.79,8.2,0,16.59-.33,24.93-.99,23.96-1.86,48.68-6.43,73.47-13.58,23.59-6.8,47.74-15.99,71.78-27.3,11.84-5.57,23.91-11.76,35.86-18.39l5.38-2.99,110.05,91.47,49.71,41.28-5.49,6.9c-.11.14-11.9,15.14-25.5,42.47-12.52,25.16-29.19,66.22-37.5,119.01-.09.63-.19,1.27-.29,1.91-.07.45-.14.9-.21,1.36v.04l-.1.72c-.57,3.73-1.12,7.92-1.68,12.79-.22,1.77-.45,3.71-.63,5.6-.36,3.43-.68,6.99-.97,10.66-.18,2.24-.37,4.51-.5,6.76-.61,9.61-.92,19.36-.92,28.99,0,2.83.04,5.71.09,8.63v.34c.05,2.88.14,5.74.28,8.73v.15c.11,3.54.25,6.48.45,9.27v.25c.13,2.71.33,5.63.64,9.18v.19c.22,3.1.51,6.42.92,10.45.24,2.39.52,4.78.8,7.19l.18,1.51v.17c0,.06.01.13.02.2.41,3.16.81,6.26,1.25,9.4.45,3.27.96,6.58,1.5,9.85l.12.74v.16c.25,1.7.57,3.47.88,5.18l.03.2c.33,2.06.68,4.01,1.05,5.81l.04.22c.78,4.37,1.67,8.67,2.42,12.3l.03.17c.19,1.03.42,2.07.66,3.12.14.65.29,1.31.43,1.96,1.56,7.01,3.15,13.57,4.84,19.94.36,1.4.72,2.79,1.11,4.14l.09.32c.85,3.07,1.72,6.24,2.62,9.34,6.36,21.87,14.3,44.11,23.58,66.1,1.33,3.11,2.71,6.3,4.09,9.48l.19.41c.95,2.11,1.89,4.21,2.84,6.28l.11.26c.68,1.62,1.49,3.32,2.26,4.96,1,2.16,1.98,4.23,2.96,6.32l1.32,2.81c2.2,4.55,4.38,9.14,6.48,13.66l.8,1.7c1.85,3.94,3.77,8.01,5.56,12.1,1.42,3.13,2.65,5.91,3.76,8.5.26.5.44.92.55,1.2,1.23,2.69,2.5,5.61,3.86,8.91.31.75.65,1.53.99,2.3.39.88.77,1.77,1.14,2.66,1.52,3.54,3.02,7.16,4.53,10.78,2.59,6.36,4.84,12,6.92,17.28l.06.15c.87,2.33,1.74,4.66,2.65,7l.07.17.06.17c.34.99.74,2.02,1.18,3.16.16.35.33.77.48,1.27.32.87.65,1.74.97,2.62.64,1.71,1.28,3.43,1.9,5.15.32.91.63,1.76.94,2.62.71,1.97,1.44,4.01,2.14,6.09.3.78.59,1.58.86,2.37l.28.81c1.6,4.65,3.25,9.47,4.79,14.18l1.94,5.97c.75,2.19,1.5,4.56,2.3,7.23.93,2.93,1.89,6.07,2.84,9.33,1.95,6.51,3.74,12.86,5.31,18.82.6,2.05,1.18,4.2,1.72,6.4.83,3.05,1.56,6.01,2.23,8.78,21.98,87.99,24.87,168.14,8.59,238.17-17.68,76.01-57.89,139.63-119.53,189.09-10.53,8.41-21.49,16.33-32.6,23.53-4.4,2.88-8.83,5.62-12.18,7.68l-.24.14c-1.12.64-2.22,1.31-3.33,1.98l-1.36.82c-1.32.78-2.63,1.56-4.04,2.32-.63.37-1.27.73-1.91,1.09-.59.33-1.17.66-1.75,1l-.12.07c-2.57,1.47-5.35,3.03-8.27,4.52-5.2,2.87-10.73,5.7-16.91,8.67-1.52.8-3.01,1.5-4.46,2.18-1.32.64-2.62,1.25-4,1.89l-.42.2c-2.17,1.02-4.59,2.12-7.19,3.26-2.29,1.04-4.73,2.13-7.28,3.19-2.01.9-4.04,1.74-6,2.55l-1.41.58c-3.76,1.56-7.8,3.22-11.87,4.76-7.24,2.82-13.31,5.08-19.03,7.08l-7.03,2.48c-5.11,1.8-10.18,3.59-15.16,5.38-8.73,3.18-18,6.6-29.11,10.74,0,0-11.95,4.49-14.62,5.49l-1.51.6c-2.79,1.06-5.57,2.14-8.33,3.21-2.45.95-4.88,1.89-7.29,2.81-10.02,3.91-19.91,7.85-29.36,11.69-2.3.91-4.47,1.79-6.64,2.67-5.37,2.21-10.69,4.43-15.9,6.61l-3.98,1.66c-5.66,2.37-11.71,4.92-17.58,7.49-4.05,1.74-7.99,3.46-11.89,5.17-10.01,4.37-20.38,9.05-31.71,14.3-2.2,1.02-4.43,2.07-6.6,3.1l-1.03.48c-1.18.54-2.35,1.09-3.52,1.65-1.24.59-2.48,1.18-3.73,1.75-1.18.58-2.38,1.15-3.57,1.72-1.17.56-2.33,1.11-3.49,1.68-1.21.58-2.36,1.14-3.51,1.7-1.21.58-2.41,1.17-3.6,1.74l-6.79,3.33c-7.87,3.87-16.23,8.12-25.56,12.97-6.32,3.26-12.2,6.37-17.48,9.25l-.28.15-.17.1c-.28.16-.56.31-.84.46-2.75,1.45-5.66,3.04-9.41,5.14-1.53.85-3.03,1.7-4.51,2.54l-2.08,1.18c-1.18.65-2.34,1.31-3.48,1.96-1.14.65-2.26,1.29-3.39,1.91-3.96,2.26-7.75,4.5-11.29,6.61l-.11.07c-1.97,1.13-3.94,2.32-5.84,3.47-.99.6-1.98,1.19-2.96,1.78-1.95,1.14-3.83,2.31-5.66,3.44-.93.57-1.84,1.14-2.75,1.69-2.17,1.36-4.39,2.76-6.51,4.11l-.89.56c-1.08.71-2.16,1.41-3.22,2.09-1.33.86-2.63,1.69-3.88,2.53l-.09.06c-4.99,3.28-9.49,6.33-13.24,8.89-.93.67-1.85,1.31-2.76,1.94-.59.41-1.17.81-1.74,1.21-7.72,5.48-14.92,10.91-21.4,16.14-7.91,6.36-11.42,9.95-11.46,9.99l-6.44,6.62-6.46-6.59Z" fill="#000fa9"/>
  <path d="M686.69,32.44s3.73,5.6,11.24,14.32c26.84,31.29,101.71,102.92,224.98,102.92,8.33,0,16.86-.33,25.64-1.01,23.47-1.82,48.57-6.21,75.26-13.91,23.14-6.67,47.55-15.77,73.12-27.81,11.9-5.6,24.03-11.81,36.4-18.66l22.12,18.38,83.2,69.15,42.93,35.65s-48.34,60.75-64.86,165.74c-.19,1.31-.42,2.61-.61,3.97v.05c-.65,4.29-1.21,8.68-1.73,13.11-.23,1.91-.47,3.83-.65,5.79-.37,3.55-.7,7.19-.98,10.83-.19,2.29-.37,4.57-.51,6.91-.61,9.57-.93,19.41-.93,29.54,0,2.99.05,6.02.09,9.1.05,2.99.14,5.97.28,9.01.09,3.22.23,6.44.47,9.66.14,3.17.37,6.35.65,9.56.23,3.55.56,7.14.93,10.78.28,2.75.61,5.51.93,8.31,0,.23.05.42.05.65.42,3.27.84,6.53,1.31,9.85.47,3.36.98,6.72,1.54,10.08v.05c.28,2.05.65,4.11,1.03,6.16.33,2.05.7,4.15,1.12,6.21.75,4.15,1.59,8.3,2.47,12.55.33,1.73.75,3.5,1.12,5.27,1.49,6.72,3.13,13.53,4.95,20.39.37,1.45.75,2.89,1.17,4.34.89,3.22,1.77,6.44,2.71,9.66,6.3,21.65,14.19,44,23.94,67.1,1.35,3.17,2.75,6.39,4.15,9.61,1.03,2.29,2.05,4.57,3.08,6.81.75,1.77,1.59,3.55,2.43,5.32,1.4,3.03,2.85,6.07,4.29,9.15,2.19,4.53,4.34,9.05,6.44,13.58,2.15,4.57,4.29,9.1,6.3,13.67,1.35,2.99,2.66,5.93,3.92,8.87.14.19.23.47.33.7,1.35,2.94,2.61,5.88,3.83,8.82.7,1.68,1.45,3.31,2.15,4.99,1.54,3.59,3.03,7.19,4.53,10.78,2.33,5.74,4.62,11.43,6.86,17.12.89,2.38,1.77,4.76,2.71,7.14.42,1.21.89,2.43,1.35,3.64.09.23.19.37.23.61.98,2.66,2.01,5.37,2.99,8.07,1.03,2.89,2.1,5.79,3.08,8.73.37.93.7,1.91,1.03,2.85,1.63,4.76,3.27,9.52,4.81,14.23.65,2.01,1.31,4.01,1.96,6.02.79,2.33,1.54,4.71,2.24,7.05.98,3.08,1.91,6.16,2.8,9.19,1.87,6.25,3.64,12.5,5.27,18.71.61,2.05,1.17,4.15,1.68,6.25.79,2.89,1.49,5.74,2.19,8.63,41.67,166.81,17.12,317.85-107.83,418.12-9.99,7.98-20.58,15.68-31.87,23-3.92,2.57-7.88,5.04-11.99,7.56-1.63.93-3.22,1.91-4.85,2.89-1.26.75-2.52,1.49-3.83,2.19-1.26.75-2.57,1.45-3.83,2.19-2.61,1.49-5.27,2.99-8.02,4.39-5.41,2.99-11.01,5.83-16.75,8.59-1.4.75-2.8,1.4-4.29,2.1-1.45.7-2.85,1.35-4.34,2.05-2.29,1.07-4.67,2.15-7,3.17-2.38,1.07-4.76,2.15-7.23,3.17-2.38,1.07-4.81,2.05-7.28,3.08-3.83,1.59-7.7,3.17-11.62,4.67-6.11,2.38-12.41,4.76-18.8,7-7.51,2.66-14.98,5.27-22.26,7.89-9.99,3.64-19.69,7.23-29.21,10.78-5.46,2.05-10.82,4.06-16.14,6.07l-.05.05c-5.27,2.01-10.5,4.06-15.63,6.02-10.17,3.97-20.02,7.89-29.54,11.76-2.24.89-4.43,1.77-6.63,2.66-6.81,2.8-13.48,5.6-19.97,8.31-6.02,2.52-11.99,5.04-17.73,7.56-4.01,1.73-7.98,3.45-11.9,5.18-11.1,4.85-21.7,9.66-31.87,14.37-2.52,1.17-5.09,2.38-7.56,3.55-2.47,1.12-4.9,2.33-7.37,3.45-2.38,1.17-4.81,2.29-7.19,3.45-2.33,1.12-4.71,2.29-7.05,3.41-2.29,1.12-4.57,2.24-6.86,3.36-9.01,4.43-17.59,8.82-25.76,13.06-6.07,3.13-11.99,6.25-17.64,9.33-.37.19-.75.42-1.12.61-3.27,1.73-6.49,3.5-9.66,5.27-2.19,1.21-4.39,2.47-6.53,3.69-2.38,1.31-4.67,2.66-6.95,3.92-4.01,2.29-7.79,4.53-11.48,6.72-3.08,1.77-6.02,3.59-8.91,5.32-2.94,1.73-5.74,3.5-8.49,5.18-2.61,1.63-5.18,3.27-7.6,4.81-2.47,1.63-4.95,3.17-7.23,4.71-4.9,3.22-9.38,6.25-13.48,9.05-1.54,1.12-3.08,2.15-4.53,3.17-9.33,6.63-16.52,12.18-21.84,16.47-8.58,6.91-12.27,10.73-12.27,10.73,0,0-3.73-3.83-12.46-10.92-3.78-3.08-8.49-6.72-14.28-10.96-1.07-.79-2.24-1.63-3.41-2.47-1.4-.98-2.8-2.01-4.34-3.08-2.52-1.77-5.23-3.64-8.03-5.6-.42-.28-.84-.56-1.26-.84-1.68-1.12-3.41-2.29-5.23-3.45-7.51-4.99-15.96-10.41-25.52-16.19-.89-.61-1.82-1.12-2.75-1.68-1.17-.7-2.33-1.45-3.55-2.1-3.08-1.91-6.25-3.73-9.57-5.65-1.63-.98-3.31-1.91-4.99-2.89-5.09-2.89-10.45-5.93-16-9.01-2.05-1.17-4.15-2.33-6.3-3.45-2.15-1.17-4.34-2.38-6.53-3.55-3.64-1.96-7.42-3.97-11.29-5.97-.98-.51-1.96-1.03-2.94-1.54-2.19-1.12-4.39-2.24-6.63-3.41-2.38-1.26-4.85-2.47-7.33-3.73-6.72-3.41-13.72-6.86-21-10.36-3.73-1.82-7.56-3.64-11.43-5.51-9.71-4.62-19.88-9.33-30.52-14.14-5.18-2.33-10.5-4.71-15.91-7.09-2.89-1.31-5.79-2.57-8.77-3.87-4.67-1.96-9.43-4.01-14.18-6.02-11.85-5.04-24.22-10.17-37.1-15.4-8.26-3.27-16.7-6.63-25.38-10.03h-.05c-5.13-2.05-10.36-4.06-15.68-6.07-5.27-2.01-10.64-4.06-16.1-6.11-7.51-2.8-15.16-5.65-23-8.44-9.43-3.45-19.04-6.91-28.88-10.36-10.59-3.73-20.81-7.61-30.7-11.76-2.01-.84-4.01-1.68-5.97-2.52-.89-.37-1.82-.75-2.75-1.12-2.43-1.12-4.85-2.19-7.33-3.31-2.61-1.17-5.23-2.38-7.79-3.59-2.8-1.31-5.51-2.61-8.21-3.97-4.57-2.24-8.96-4.53-13.35-6.81-2.01-1.12-4.06-2.19-6.02-3.31-4.39-2.38-8.68-4.85-12.88-7.33-2.71-1.63-5.41-3.27-8.07-4.95-.23-.14-.47-.28-.7-.42-2.01-1.26-3.97-2.57-5.93-3.87h-.05c-1.77-1.12-3.45-2.29-5.18-3.45-2.15-1.45-4.25-2.85-6.35-4.34-2.01-1.4-4.06-2.8-6.02-4.29-2.19-1.54-4.39-3.17-6.49-4.81-2.8-2.1-5.46-4.2-8.12-6.35-15.35-12.36-29.26-25.48-41.57-39.29-17.82-19.83-32.62-41.11-44.51-63.64-.65-1.12-1.26-2.29-1.87-3.45-36.25-70.36-45.54-152.77-33.41-241.37,3.13-22.96,7.7-46.38,13.62-70.08.98-3.97,2.01-8.03,3.08-12.04.84-3.08,1.68-6.21,2.57-9.29.84-2.89,1.63-5.79,2.52-8.77,1.26-4.29,2.61-8.63,3.92-12.97,1.03-3.41,2.15-6.77,3.22-10.17.28-.89.65-1.87.93-2.8,1.49-4.57,3.03-9.15,4.67-13.72.37-1.17.75-2.29,1.21-3.45,4.67-13.44,9.8-26.92,15.3-40.5,1.49-3.78,3.03-7.51,4.67-11.34.28-.79.61-1.59.98-2.38,1.26-3.08,2.57-6.11,3.87-9.15,1.4-3.17,2.8-6.39,4.25-9.57.47-1.26,1.03-2.47,1.63-3.69,1.87-4.29,3.87-8.63,5.88-12.97,2.61-5.65,5.32-11.29,8.03-16.98,3.45-7.14,6.77-14.28,9.84-21.32,1.45-3.27,2.89-6.49,4.25-9.75,10.26-24.31,18.48-47.87,24.92-70.64.56-2.05,1.12-4.06,1.63-6.11.93-3.41,1.82-6.77,2.66-10.08.79-3.22,1.59-6.39,2.29-9.57.7-2.94,1.35-5.88,1.96-8.82,1.17-5.27,2.19-10.5,3.13-15.68,6.67-36.53,8.82-70.55,7.84-101.67-.05-2.15-.14-4.25-.23-6.3-.19-4.81-.47-9.52-.84-14.18-.14-2.24-.33-4.43-.56-6.63-.37-4.39-.84-8.73-1.35-12.97-.7-6.07-1.54-11.95-2.47-17.73-.14-.84-.28-1.73-.47-2.57-17.08-102.37-64.16-161.49-64.16-161.49l148.24-123.18c28.14,15.63,54.92,27.81,80.4,37.05,48.02,17.4,91.3,24.39,129.84,24.39,26.89,0,51.46-3.4,73.74-9.04,108.58-27.48,162.66-108.25,162.66-108.25M686.7,0l-14.95,22.4c-.37.54-13.36,19.42-38.44,41.1-14.75,12.75-30.76,23.98-47.58,33.38-20.9,11.68-43.15,20.54-66.12,26.36-22.25,5.63-45.58,8.49-69.32,8.49-39.4,0-81.02-7.84-123.71-23.31-25.3-9.17-51.47-21.24-77.79-35.86l-10.77-5.98-9.48,7.87-148.24,123.18-13.56,11.27,10.98,13.79c.09.11,11.24,14.35,24.22,40.31,11.93,23.86,27.91,62.82,36.27,112.93l.08.47.1.46c.06.27.15.82.23,1.31l.04.23c.97,5.99,1.74,11.52,2.36,16.92v.05s.01.05.01.05c.54,4.44.96,8.48,1.29,12.34l.02.19.02.19c.21,1.97.37,3.88.49,5.84v.16s.02.16.02.16c.35,4.42.62,8.94.8,13.45v.06s0,.06,0,.06c.1,2.11.18,4,.22,5.87v.09s0,.09,0,.09c1.01,31.98-1.54,64.91-7.56,97.87-.97,5.41-1.95,10.31-2.99,15.03l-.03.12-.03.12c-.57,2.75-1.19,5.54-1.84,8.29l-.03.14-.03.14c-.58,2.61-1.23,5.26-1.92,8.07l-.25,1.02c-.8,3.15-1.66,6.41-2.56,9.68l-.05.19-.05.19c-.38,1.51-.8,3.04-1.24,4.67l-.27.97c-6.41,22.64-14.53,45.68-24.16,68.48l-.02.06-.02.06c-1.06,2.56-2.2,5.12-3.4,7.84l-.67,1.51-.02.04-.02.04c-2.83,6.46-6.04,13.43-9.56,20.69l-.03.05-.03.05-1.54,3.23c-2.17,4.55-4.41,9.26-6.57,13.93h0s-.02.05-.02.05c-1.95,4.21-3.96,8.56-5.85,12.89-.77,1.56-1.39,2.97-1.93,4.35-1.07,2.35-2.1,4.7-3.1,6.97l-1,2.26-.03.07-.03.07c-1.26,2.93-2.57,5.96-3.84,9.07-.45.98-.86,1.97-1.23,2.97-1.66,3.89-3.17,7.58-4.63,11.27-5.87,14.47-10.93,27.87-15.47,40.92-.56,1.43-1,2.73-1.38,3.94-1.5,4.21-3.01,8.64-4.72,13.9l-.07.21-.06.21c-.05.16-.18.55-.29.87-.2.58-.39,1.14-.56,1.68-.38,1.21-.77,2.41-1.15,3.6-.71,2.2-1.44,4.47-2.14,6.8-.48,1.6-.97,3.19-1.45,4.78-.83,2.72-1.69,5.53-2.51,8.32-.54,1.84-1.05,3.62-1.54,5.34-.33,1.17-.66,2.33-1,3.49-.76,2.66-1.48,5.28-2.17,7.81l-.48,1.76v.05s-.02.05-.02.05c-.98,3.65-1.98,7.57-3.15,12.32h0c-6.11,24.43-10.82,48.66-14,72.02-13.18,96.27-1.32,181.08,35.24,252.05v.03s.03.03.03.03c.61,1.17,1.29,2.49,2.08,3.86,12.65,23.9,28.42,46.42,46.87,66.95,12.84,14.39,27.53,28.28,43.68,41.28,3.16,2.55,5.86,4.66,8.48,6.63,2.29,1.78,4.57,3.47,6.79,5.04,1.84,1.39,3.61,2.62,5.33,3.82l.94.65c1.99,1.41,3.93,2.72,5.8,3.98l.85.57,1.11.75c1.42.97,2.89,1.96,4.51,2.99l.72.46c1.7,1.13,3.46,2.29,5.3,3.44l.16.1.16.1.52.31c2.72,1.71,5.45,3.36,8.09,4.96l.11.07.08.05.09.05c5.1,3,9.32,5.4,13.25,7.54,1.24.7,2.45,1.36,3.62,2,.8.43,1.6.87,2.39,1.31l.22.12.23.12c4.38,2.28,8.91,4.65,13.67,6.98,2.84,1.42,5.65,2.77,8.59,4.15,3.04,1.44,5.6,2.62,8.03,3.7.87.39,1.73.78,2.59,1.17,1.54.69,3.06,1.37,4.58,2.08l.43.2.43.17c.81.33,1.63.65,2.41.98,1.99.85,4.02,1.7,6.05,2.55,9.68,4.06,20.04,8.03,31.67,12.13,9.39,3.29,19.03,6.75,28.67,10.28l.07.03.07.02c7.48,2.67,14.73,5.36,22.75,8.35,4.13,1.55,8.2,3.11,12.22,4.64l3.78,1.44h.02s.02.02.02.02c6.02,2.27,10.9,4.16,15.34,5.94l3.22,1.29h.1c4.94,1.95,9.81,3.87,14.61,5.78,2.51.99,4.99,1.98,7.46,2.96,12.73,5.17,25.1,10.3,36.77,15.26h.03s.03.02.03.02c2.2.93,4.41,1.87,6.6,2.8,2.51,1.07,5.01,2.13,7.48,3.17l.82.36c2.65,1.16,5.15,2.25,7.64,3.38l.08.04.08.04c4.78,2.1,9.79,4.33,15.76,7.03,10.44,4.72,20.58,9.41,30.12,13.95,1.38.67,2.76,1.33,4.13,1.98,2.43,1.17,4.84,2.32,7.21,3.48l.04.02.04.02c7.13,3.43,14.08,6.85,20.66,10.19.82.42,1.67.85,2.53,1.28,1.59.8,3.1,1.56,4.52,2.31l.05.03.05.03c2.25,1.17,4.46,2.3,6.67,3.43l.9.47,1.96,1.02.04.02.03.02c3.46,1.8,7.08,3.71,11.04,5.84l.04.02.04.02c1.44.77,2.88,1.56,4.31,2.34.7.38,1.39.76,2.08,1.13l.13.07.13.07c1.67.87,3.44,1.84,5.73,3.15l.08.05.08.04c5.96,3.31,11.55,6.47,15.77,8.87.66.39,1.32.76,1.98,1.14.96.55,1.88,1.07,2.71,1.58l.13.08.13.08.69.4c2.96,1.71,5.76,3.32,8.37,4.95l.47.29.49.26c.44.24,1.06.62,1.72,1.02.37.23.74.45,1.11.67.31.18.62.37.94.56.32.19.76.44.9.54l.42.29.43.26c8.47,5.12,16.61,10.29,24.88,15.78l.12.08.13.08c1.32.85,2.67,1.75,3.96,2.61l.99.66.9.6.19.13c1.18.83,2.34,1.63,3.48,2.43,1.49,1.04,2.95,2.05,4.34,3.03l.03.02.03.02c.77.54,1.5,1.06,2.21,1.57.68.49,1.34.96,2.01,1.43,1.07.77,2.14,1.54,3.12,2.26l.03.02.03.02c5.24,3.84,9.8,7.35,13.56,10.41,7.26,5.9,10.66,9.25,10.97,9.56l13.06,13.61,12.74-13.7c.4-.4,3.71-3.66,10.61-9.22,6.37-5.14,13.42-10.45,20.98-15.82.53-.38,1.08-.76,1.64-1.14.86-.59,1.82-1.26,2.82-1.98,3.69-2.52,8.11-5.51,13.02-8.74l.08-.06.08-.06c1.14-.77,2.4-1.58,3.73-2.44,1.06-.69,2.14-1.38,3.23-2.09l.84-.53c2.08-1.32,4.26-2.7,6.46-4.08.9-.55,1.8-1.1,2.7-1.66,1.86-1.15,3.63-2.24,5.43-3.3l.05-.03.05-.03c.99-.59,1.98-1.19,2.99-1.8,1.86-1.13,3.79-2.29,5.68-3.38l.11-.07.11-.07c3.48-2.07,7.2-4.28,11.08-6.49,1.15-.63,2.3-1.29,3.45-1.95,1.16-.66,2.26-1.29,3.36-1.89l.1-.05.1-.05c.66-.37,1.33-.75,2-1.13,1.45-.83,2.92-1.66,4.39-2.47l.03-.02.03-.02c3.67-2.05,6.5-3.6,9.18-5.01.46-.24.84-.45,1.08-.58l.08-.04.28-.15c5.21-2.84,11.02-5.92,17.27-9.13l.03-.02h.03c9.28-4.84,17.59-9.05,25.4-12.9l6.78-3.32c1.17-.56,2.35-1.14,3.53-1.71,1.15-.56,2.3-1.12,3.44-1.66l.07-.03.06-.03c1.12-.55,2.26-1.09,3.39-1.63,1.19-.56,2.37-1.13,3.55-1.7,1.3-.59,2.54-1.18,3.75-1.76,1.18-.56,2.29-1.09,3.37-1.58l.13-.06.13-.06.66-.31c2.23-1.05,4.52-2.13,6.78-3.18,11.28-5.22,21.58-9.87,31.51-14.21h.02s.02-.02.02-.02c3.82-1.68,7.78-3.41,11.76-5.12l.06-.03.06-.03c5.8-2.55,11.81-5.08,17.44-7.44l4.07-1.7c5.12-2.14,10.42-4.35,15.75-6.54,2.13-.86,4.27-1.73,6.45-2.59l.08-.03.08-.03c9.38-3.81,19.22-7.73,29.25-11.65,2.4-.92,4.81-1.85,7.24-2.79,2.74-1.06,5.51-2.13,8.29-3.19l3.6-1.37.02-.02c1.95-.73,3.9-1.46,5.86-2.2,2.2-.82,4.4-1.65,6.63-2.49,11.09-4.13,20.32-7.54,29.02-10.71,4.93-1.77,10.08-3.59,15.06-5.34,2.35-.83,4.71-1.66,7.07-2.5,5.8-2.03,11.93-4.31,19.28-7.18,4.15-1.58,8.23-3.26,12.03-4.83l1.43-.59c1.98-.82,4.02-1.66,6.1-2.59,2.6-1.09,5.04-2.19,7.41-3.25,2.66-1.17,5.12-2.29,7.33-3.32l.39-.18c1.38-.64,2.68-1.26,4.03-1.91,1.49-.7,3.02-1.42,4.66-2.28,6.22-2.99,11.81-5.86,17.08-8.76,3.04-1.55,5.89-3.16,8.52-4.66l.12-.07.12-.07c.52-.31,1.05-.61,1.59-.91.64-.36,1.27-.72,1.9-1.09,1.52-.83,2.92-1.66,4.17-2.39l.05-.03.05-.03,1.34-.81c1.12-.68,2.17-1.31,3.18-1.89l.24-.14.24-.14c3.41-2.09,7.91-4.88,12.43-7.84,11.34-7.36,22.53-15.44,33.25-24,63.28-50.78,104.55-116.07,122.7-194.09,16.61-71.41,13.71-152.96-8.62-242.38-.64-2.65-1.39-5.73-2.25-8.86-.56-2.27-1.15-4.47-1.76-6.57-1.58-6-3.38-12.39-5.35-18.99-.96-3.27-1.92-6.43-2.86-9.4-.82-2.72-1.59-5.14-2.35-7.4l-1.17-3.59-.76-2.33c-1.57-4.8-3.23-9.64-4.84-14.33l-.06-.17-.02-.05-.02-.05-.18-.53c-.25-.72-.55-1.59-.91-2.52-.71-2.1-1.44-4.13-2.14-6.09-.3-.84-.6-1.67-.9-2.51l-.02-.05-.02-.05c-.63-1.74-1.27-3.47-1.92-5.2-.31-.82-.61-1.64-.91-2.46-.25-.76-.49-1.36-.67-1.78-.34-.88-.7-1.82-.98-2.65l-.12-.34-.13-.34c-.88-2.24-1.75-4.59-2.6-6.85l-.06-.15-.06-.15c-2.1-5.34-4.37-11-6.93-17.31l-.03-.06-.03-.06c-1.49-3.58-3.01-7.24-4.57-10.89-.38-.9-.76-1.79-1.15-2.68-.31-.72-.63-1.44-.93-2.16-1.37-3.33-2.66-6.29-3.91-9.04-.18-.44-.39-.93-.66-1.47-1.11-2.57-2.32-5.31-3.7-8.35-1.84-4.19-3.79-8.33-5.66-12.33l-.77-1.64c-2.11-4.54-4.29-9.15-6.5-13.7-.45-.96-.91-1.92-1.36-2.88-.96-2.03-1.91-4.05-2.84-6.06l-.04-.08-.04-.08c-.77-1.63-1.5-3.17-2.1-4.6l-.11-.26-.12-.26c-.96-2.1-1.92-4.23-2.88-6.37l-.09-.21c-1.35-3.09-2.73-6.29-4.06-9.4-9.14-21.66-16.95-43.55-23.21-65.07-.88-3.04-1.71-6.06-2.6-9.27l-.04-.14-.03-.12-.03-.12c-.35-1.2-.69-2.53-1.02-3.82l-.02-.06-.02-.06c-1.65-6.22-3.2-12.62-4.75-19.58-.14-.65-.28-1.29-.42-1.94-.23-1.04-.44-2.02-.6-2.87l-.03-.17-.04-.17c-.74-3.56-1.61-7.77-2.38-12.05l-.04-.21-.04-.21c-.34-1.68-.67-3.5-.98-5.42l-.03-.2-.04-.2c-.27-1.48-.53-2.9-.74-4.24v-.19l-.25-1.52c-.53-3.18-1.02-6.41-1.47-9.59-.42-2.98-.81-5.98-1.18-8.89v-.18l-.12-1.04-.11-.97c-.29-2.45-.56-4.77-.79-7.08-.4-3.94-.68-7.15-.88-10.14v-.19s-.03-.19-.03-.19c-.3-3.43-.49-6.23-.6-8.79v-.25s-.03-.25-.03-.25c-.19-2.66-.33-5.48-.43-8.88v-.15s-.01-.15-.01-.15c-.13-2.9-.22-5.67-.26-8.46v-.09c-.05-3.04-.09-5.91-.09-8.73,0-9.45.3-19.01.9-28.4v-.03s0-.03,0-.03c.13-2.11.3-4.21.48-6.43v-.09s.01-.04.01-.04v-.04c.28-3.58.59-7.06.94-10.32v-.09s.02-.09.02-.09c.17-1.73.38-3.47.6-5.31v-.05s.01-.06.01-.06c.55-4.75,1.09-8.83,1.64-12.47l.21-1.35v-.08c.03-.21.07-.42.1-.64.11-.66.21-1.32.3-1.98,8.09-51.35,24.25-91.31,36.39-115.79,13.21-26.66,24.67-41.3,24.78-41.45l10.98-13.79-13.59-11.23-42.93-35.65-83.19-69.15-22.12-18.38-9.47-7.87-10.77,5.97c-11.78,6.54-23.67,12.63-35.33,18.12-23.61,11.12-47.31,20.13-70.44,26.8-24.21,6.99-48.33,11.44-71.67,13.26-8.13.64-16.28.96-24.24.96-115.93,0-186.4-67.58-211.31-96.64-6.58-7.64-9.92-12.58-9.96-12.63l-14.94-22.42h0Z" fill="#fff"/>
</svg>