<?xml version="1.0" encoding="UTF-8"?>
<svg id="Layer_1" data-name="Layer 1" xmlns="http://www.w3.org/2000/svg" xmlns:xlink="http://www.w3.org/1999/xlink" viewBox="0 0 172.39 132.82">
  <defs>
    <style>
      .cls-1 {
        fill: none;
      }

      .cls-2 {
        fill: #fff;
      }

      .cls-3 {
        clip-path: url(#clippath);
      }
    </style>
    <clipPath id="clippath">
      <polyline class="cls-1" points="0 0 172.39 0 172.39 132.82 0 132.82 0 0"/>
    </clipPath>
  </defs>
  <path d="M56.59,83.81c3.61-3.1-21.46-16.46-21.87-19.33l30.87,3.85-6.44-9.65,12.86,4.5-6.41-16.76,14.13,11.6-2.56-30.93c3.41-.7,2.22.84,3.19,2.53,5.19,8.97,10.1,18.55,16.08,27.12,1.24-.96,5.89-26.03,7.55-30.43.36-.95,2.79-4.09,4.03-4.38l3.21,33.54c1.65,2.13,1.37.67,2.62.03,1.68-.87,14.09-9.92,14.76-9.07-.18,7.7-5.89,12.61-5.8,20.63,2.02,3.23,15.75-3.85,19.97-2.57-2.72,5.52-10.67,9.59-14.1,13.57-1.4,1.62-1.68,2.22-1.33,4.46l29.57-3.86c.68,3.2-.7,2.28-2.39,3.35-6.89,4.33-17.67,5.56-23.33,12.12h18.01l-29.59,7.72,2.57-3.84-9-.03,6.42-7.72-12.86,3.85,3.87-5.78-6.44-1.96c-.55-2.13,2.24-.56,2.59-2.11.38-1.67-.21-3.81-.03-5.6l-6.41,3.86,1.26-15.47c-3.8.77-4.44,12.21-5.14,12.89l-5.12-3.86-.02,6.43-12.85-11.59,3.85,16.75-7.7-.65,6.42,10.96-18-5.14,15.43,12.87c-11.8-4.65-23.98-8.88-35.61-13.94-4.62-2.01-11.33-4.44-14.56-7.97h28.3Z"/>
  <path d="M28.96,25.24c-.81.75-16.23-3.35-17.41-5.1l-.58-16.81,12.09,11.72,5.9,10.19Z"/>
  <g class="cls-3">
    <path class="cls-2" d="M123.12,60.29c-2.75,2.19-5.58,4.2-7.29,6.18-1.4,1.62-1.68,2.21-1.33,4.46l2.23-.29c3.35-3.01,5.6-6.53,6.39-10.35M88.74,55.46c-3.8.77-4.43,12.21-5.14,12.89l-5.12-3.86-.02,6.43-12.85-11.59,3.85,16.75-6.49-.55c6.37,3.2,14.44,5.11,23.22,5.11,3.28,0,6.45-.27,9.48-.76l2.1-3.13-6.44-1.96c-.55-2.13,2.24-.56,2.59-2.11.38-1.67-.21-3.8-.03-5.6l-6.41,3.86,1.26-15.47M49.78,52.31c-.44,1.28-.71,2.61-.8,3.96l3.75.47-2.96-4.43M56.06,43.49c-1.91,1.65-3.48,3.46-4.66,5.39l7.76,2.71-3.1-8.1M114.17,41.79c-1.74,4.34-4.27,8.32-4.21,13.68.38.61,1.18.85,2.26.85,2.07,0,5.15-.89,8.23-1.79.87-.25,1.74-.51,2.58-.74-1.07-4.56-4.24-8.7-8.86-12M66.14,37.52c-2.27.91-4.37,1.98-6.26,3.17l7,5.75-.74-8.91M97.52,34.94l.86,8.94c.64.83.99,1.12,1.26,1.12.41,0,.6-.7,1.36-1.09.85-.43,4.43-2.96,7.86-5.24-3.37-1.63-7.2-2.9-11.34-3.73M86.19,33.84c-3.21,0-6.33.26-9.31.74,2.12,3.62,4.33,7.18,6.7,10.58.54-.42,1.73-5.43,3.04-11.31-.15,0-.29,0-.44,0"/>
  </g>
</svg>