<?xml version="1.0" encoding="UTF-8"?>
<svg id="a" data-name="栝鍣 1" xmlns="http://www.w3.org/2000/svg" xmlns:xlink="http://www.w3.org/1999/xlink" viewBox="0 0 647.25 444.46">
  <defs>
    <linearGradient id="b" data-name="鍊踑臇蜸馯鳺艜 37" x1="449.92" y1="141.69" x2="488.9" y2="141.69" gradientUnits="userSpaceOnUse">
      <stop offset="0" stop-color="#b52c02"/>
      <stop offset=".55" stop-color="#dc3f0a"/>
      <stop offset=".91" stop-color="#f24a0f"/>
    </linearGradient>
    <linearGradient id="c" data-name="鍊踑臇蜸馯鳺艜 37" x1="341.03" y1="154.13" x2="348.93" y2="154.13" xlink:href="#b"/>
    <linearGradient id="d" data-name="鍊踑臇蜸馯鳺艜 37" x1="220.44" y1="128.95" x2="249.18" y2="128.95" xlink:href="#b"/>
    <linearGradient id="e" data-name="鍊踑臇蜸馯鳺艜 37" x1="528.15" y1="41.31" x2="569.26" y2="41.31" xlink:href="#b"/>
    <linearGradient id="f" data-name="鍊踑臇蜸馯鳺艜 37" x1="48.59" y1="162.7" x2="78.51" y2="162.7" xlink:href="#b"/>
    <linearGradient id="g" data-name="鍊踑臇蜸馯鳺艜 37" x1="78.51" y1="39.61" x2="108.42" y2="39.61" xlink:href="#b"/>
    <linearGradient id="h" data-name="鍊踑臇蜸馯鳺艜 71" x1="552.38" y1="163.23" x2="632.74" y2="163.23" gradientUnits="userSpaceOnUse">
      <stop offset=".37" stop-color="#b52c02"/>
      <stop offset=".7" stop-color="#dc3f0a"/>
      <stop offset=".91" stop-color="#f24a0f"/>
    </linearGradient>
    <linearGradient id="i" data-name="鍊踑臇蜸馯鳺艜 15" x1="570.45" y1="152.8" x2="599.56" y2="152.8" gradientUnits="userSpaceOnUse">
      <stop offset="0" stop-color="#d45300"/>
      <stop offset=".43" stop-color="#fc9206"/>
      <stop offset="1" stop-color="#fce806"/>
    </linearGradient>
    <linearGradient id="j" data-name="鍊踑臇蜸馯鳺艜 37" x1="0" y1="265.71" x2="82.24" y2="265.71" xlink:href="#b"/>
    <linearGradient id="k" data-name="鍊踑臇蜸馯鳺艜 15" x1="5.65" y1="267.48" x2="62.88" y2="267.48" xlink:href="#i"/>
    <linearGradient id="l" data-name="鍊踑臇蜸馯鳺艜 116" x1="232.29" y1="430.43" x2="436.59" y2="219.26" gradientUnits="userSpaceOnUse">
      <stop offset="0" stop-color="#fca706"/>
      <stop offset=".73" stop-color="#f9e35d"/>
    </linearGradient>
    <linearGradient id="m" data-name="鍊踑臇蜸馯鳺艜 37" x1="291.93" y1="477.61" x2="389.79" y2="364.3" xlink:href="#b"/>
    <linearGradient id="n" data-name="鍊踑臇蜸馯鳺艜 15" x1="315.43" y1="460.69" x2="365.22" y2="392.02" xlink:href="#i"/>
    <linearGradient id="o" data-name="鍊踑臇蜸馯鳺艜 37" x1="277.86" y1="429.98" x2="390.65" y2="429.98" xlink:href="#b"/>
    <linearGradient id="p" data-name="鍊踑臇蜸馯鳺艜 37" x1="117.45" y1="222.58" x2="206.67" y2="222.58" xlink:href="#b"/>
    <linearGradient id="q" data-name="鍊踑臇蜸馯鳺艜 37" x1="520.09" y1="326.8" x2="647.25" y2="326.8" xlink:href="#b"/>
  </defs>
  <path d="M449.92,196.28s16.57-55.11,18.32-78.79c.98-13.28,5.14-33.71,15.3-29.93,15.22,5.67-5.89,29.55-14.66,52.4-5.7,14.84-18.96,56.32-18.96,56.32Z" fill="url(#b)"/>
  <path d="M347.97,182s-1.9-28.17-5.19-39.35c-1.84-6.27-3.46-16.37,1.86-16.39,7.97-.02,2.4,14.59,2.31,26.6-.06,7.8,1.01,29.14,1.01,29.14Z" fill="url(#c)"/>
  <path d="M249.18,169.26s-12.96-40.54-21.81-55.72c-4.96-8.51-10.97-22.71-3.2-24.65,11.65-2.91,8.78,20.48,12.99,38.09,2.74,11.44,12.01,42.28,12.01,42.28Z" fill="url(#d)"/>
  <path d="M528.15,82.61s18.68-41.6,22.49-60.03c2.14-10.33,7.51-25.96,15.1-21.94,11.37,6.02-7.66,22.61-16.91,39.66-6,11.08-20.69,42.3-20.69,42.3Z" fill="url(#e)"/>
  <path d="M78.51,183.54s-14.61-20.64-22.34-27.65c-4.33-3.93-10.28-10.89-6.23-13.39,6.08-3.74,8.64,10.03,14.18,19.24,3.6,5.99,14.38,21.79,14.38,21.79Z" fill="url(#f)"/>
  <path d="M108.42,60.44s-14.61-20.64-22.34-27.65c-4.33-3.93-10.28-10.89-6.23-13.39,6.08-3.74,8.64,10.03,14.18,19.24,3.6,5.99,14.38,21.79,14.38,21.79Z" fill="url(#g)"/>
  <path d="M552.38,230.06s37.33-67.85,38.72-98.75c.78-17.48,11.36-41.03,31.21-33.44,19.85,7.6,9.7,39.95-16.14,57.99-17.13,11.96-53.78,74.2-53.78,74.2Z" fill="url(#h)"/>
  <path d="M599.56,108.13s-5.04,7.64-6.61,23.67c-1.57,16.02-22.5,65.69-22.5,65.69,0,0,25.64-41.36,26.12-52.37.48-11.01.28-30.86,2.99-36.99Z" fill="url(#i)"/>
  <path d="M82.24,306.09s-40.39-40.03-61.92-47.24c-12.18-4.08-26.68-16.29-17.32-28.77s30.17,1.2,37.69,23.08c4.99,14.51,41.55,52.93,41.55,52.93Z" fill="url(#j)"/>
  <path d="M5.65,248.2s4.38,5.1,15.38,9.43c11,4.34,41.85,29.12,41.85,29.12,0,0-24.04-26.44-31.71-29-7.68-2.56-21.73-6.42-25.51-9.56Z" fill="url(#k)"/>
  <path d="M162.4,444.45l-39.32-50.3s36.03,44.92,60.83,25.67c11.88-9.21-51.35-105.36-51.35-105.36,0,0,48.75,53.98,68.17,44.27,19.42-9.71-63.11-134.03-63.11-134.03,0,0,66.83,85.13,76.54,78.19,9.71-6.94-2.24-48.73-2.24-48.73,0,0,33.24,66.81,54.05,70.97s-51.81-204.15-51.81-204.15c0,0,75.4,181.95,98.98,184.73,23.58,2.77,3.97-125.03,3.97-125.03,0,0,14.59,61.62,29.85,61.62s17.51-125.27,17.51-125.27c0,0-.03,185.9,22.87,197,22.91,11.1,85.9-159.91,85.9-159.91,0,0-32.47,132.16-26.93,147.42,5.55,15.26,63.82-48.56,63.82-48.56,0,0-33.3,43.01-24.97,61.04,8.32,18.04,98.5-59.66,98.5-59.66,0,0-117.92,119.31-108.21,145.67,9.71,26.36,90.79-26.38,90.79-26.38l-80.75,70.78H162.4Z" fill="#fff"/>
  <path d="M164.49,444.45l-14.76-24.6s22.14,25.83,41.83,6.15c19.68-19.68-41.83-87.34-41.83-87.34,0,0,44.29,41.83,61.51,33.21,17.22-8.61-51.67-115.63-51.67-115.63,0,0,54.13,62.74,62.74,56.59,8.61-6.15,0-33.21,0-33.21,0,0,35.67,55.36,54.13,59.05,18.45,3.69-49.21-184.52-49.21-184.52,0,0,70.12,164.84,91.03,167.3s6.15-110.71,6.15-110.71c0,0,12.3,41.83,25.83,41.83s13.53-98.41,13.53-98.41c0,0-.03,164.84,20.28,174.68,20.31,9.84,79.36-140.24,79.36-140.24,0,0-31.98,115.63-27.06,129.17,4.92,13.53,56.59-43.06,56.59-43.06,0,0-29.52,38.13-22.14,54.13,7.38,15.99,87.34-52.9,87.34-52.9,0,0-104.56,105.79-95.95,129.17,8.61,23.37,83.65-17.22,83.65-17.22l-62.74,56.59H164.49Z" fill="url(#l)"/>
  <path d="M211.91,444.45c2.48,0,41.83-20.13,13.68-45.82,0,0,44.57,28.06,18.16-41.27,0,0,31.49,39.47,22.72,6.24,0,0,16.07,27.6,33.4,30.07,17.33,2.48-12.38-86.66-12.38-86.66,0,0,29.71,70.58,41.27,68.71s11.55-72.84,11.55-72.84c0,0,9.92,61.33,15.88,27.36,0,0-1.02,34.97,13.84,43.42,14.86,8.45,42.09-53.45,42.09-53.45,0,0-9.08,37.96,0,47.87,9.08,9.9,28.06-23.93,28.06-23.93,0,0-23.1,43-18.07,46.77,5.24,3.93,31.28-17.26,31.28-17.26,0,0-28.08,29.5-19,48.08,9.08,18.58,53.81,4.66,53.81,4.66l-49.66,18.04h-226.61Z" fill="url(#m)"/>
  <path d="M238.12,444.45s24.78,1.17,6.51-20.33c0,0,52.38,42.27,16.95-32.38,0,0,68.97,81.36,51.77-14.29,0,0,34.93,77.39,36.01-26.33,0,0,2.15,106.41,54.28,26.33,0,0-27.41,47.83,0,44.07l27.41-3.76s-32.24,18.45,0,26.69h-192.93Z" fill="url(#n)"/>
  <path d="M277.86,444.45s15.87,0,11.38-14.47c0,0,27.59,25.54,31.39,0,0,0,17.94,25.19,28.97-14.47,0,0-2.76,33.8,23.46,14.47,0,0-5.86,14.47,17.59,8.29l-8.62,6.18h-104.17Z" fill="url(#o)"/>
  <path d="M206.67,289.04s-43.37-65.99-66.73-88.7c-13.1-12.73-30.92-35.11-18-42.46,19.37-11.01,25.89,32.23,42.2,61.59,10.59,19.07,42.54,69.57,42.54,69.57Z" fill="url(#p)"/>
  <path d="M520.09,372.85s62.96-45,84.31-68.75c11.97-13.32,33.2-31.63,40.9-19.25,11.53,18.55-30.57,26.59-58.7,43.68-18.27,11.1-66.51,44.32-66.51,44.32Z" fill="url(#q)"/>
  <path d="M182.77,430.25s-46.87-30.78-68.51-38.99c-12.13-4.61-30.05-14.16-23.7-22.6,9.52-12.64,25.96,13.7,44.87,28.24,12.28,9.44,47.34,33.35,47.34,33.35Z" fill="#f24a0f"/>
</svg>