<?xml version="1.0" encoding="UTF-8"?>
<svg id="a" data-name="栝鍣 1" xmlns="http://www.w3.org/2000/svg" xmlns:xlink="http://www.w3.org/1999/xlink" viewBox="0 0 408.41 290.33">
  <defs>
    <linearGradient id="b" data-name="鍊踑臇蜸馯鳺艜 116" x1="82.56" y1="276.3" x2="286.86" y2="65.13" gradientUnits="userSpaceOnUse">
      <stop offset="0" stop-color="#fca706"/>
      <stop offset=".73" stop-color="#f9e35d"/>
    </linearGradient>
    <linearGradient id="c" data-name="鍊踑臇蜸馯鳺艜 37" x1="142.2" y1="323.48" x2="240.06" y2="210.17" gradientUnits="userSpaceOnUse">
      <stop offset="0" stop-color="#b52c02"/>
      <stop offset=".55" stop-color="#dc3f0a"/>
      <stop offset=".91" stop-color="#f24a0f"/>
    </linearGradient>
    <linearGradient id="d" data-name="鍊踑臇蜸馯鳺艜 15" x1="165.7" y1="306.56" x2="215.48" y2="237.89" gradientUnits="userSpaceOnUse">
      <stop offset="0" stop-color="#d45300"/>
      <stop offset=".43" stop-color="#fc9206"/>
      <stop offset="1" stop-color="#fce806"/>
    </linearGradient>
    <linearGradient id="e" data-name="鍊踑臇蜸馯鳺艜 37" x1="128.13" y1="275.84" x2="240.92" y2="275.84" xlink:href="#c"/>
  </defs>
  <path d="M14.76,290.32l-14.76-24.6s22.14,25.83,41.83,6.15C61.51,252.18,0,184.52,0,184.52c0,0,44.29,41.83,61.51,33.21,17.22-8.61-51.67-115.63-51.67-115.63,0,0,54.13,62.74,62.74,56.59,8.61-6.15,0-33.21,0-33.21,0,0,35.67,55.36,54.13,59.05C145.16,188.21,77.5,0,77.5,0c0,0,70.12,164.84,91.03,167.3s6.15-110.71,6.15-110.71c0,0,12.3,41.83,25.83,41.83S214.05,0,214.05,0c0,0-.03,164.84,20.28,174.68,20.31,9.84,79.36-140.24,79.36-140.24,0,0-31.98,115.63-27.06,129.17,4.92,13.53,56.59-43.06,56.59-43.06,0,0-29.52,38.13-22.14,54.13,7.38,15.99,87.34-52.9,87.34-52.9,0,0-104.56,105.79-95.95,129.17,8.61,23.37,83.65-17.22,83.65-17.22l-62.74,56.59H14.76Z" fill="url(#b)"/>
  <path d="M62.18,290.32c2.48,0,41.83-20.13,13.68-45.82,0,0,44.57,28.06,18.16-41.27,0,0,31.49,39.47,22.72,6.24,0,0,16.07,27.6,33.4,30.07,17.33,2.48-12.38-86.66-12.38-86.66,0,0,29.71,70.58,41.27,68.71s11.55-72.84,11.55-72.84c0,0,9.92,61.33,15.88,27.36,0,0-1.02,34.97,13.84,43.42,14.86,8.45,42.09-53.45,42.09-53.45,0,0-9.08,37.96,0,47.87,9.08,9.9,28.06-23.93,28.06-23.93,0,0-23.1,43-18.07,46.77,5.24,3.93,31.28-17.26,31.28-17.26,0,0-28.08,29.5-19,48.08,9.08,18.58,53.81,4.66,53.81,4.66l-49.66,18.04H62.18Z" fill="url(#c)"/>
  <path d="M88.38,290.32s24.78,1.17,6.51-20.33c0,0,52.38,42.27,16.95-32.38,0,0,68.97,81.36,51.77-14.29,0,0,34.93,77.39,36.01-26.33,0,0,2.15,106.41,54.28,26.33,0,0-27.41,47.83,0,44.07l27.41-3.76s-32.24,18.45,0,26.69H88.38Z" fill="url(#d)"/>
  <path d="M128.13,290.32s15.87,0,11.38-14.47c0,0,27.59,25.54,31.39,0,0,0,17.94,25.19,28.97-14.47,0,0-2.76,33.8,23.46,14.47,0,0-5.86,14.47,17.59,8.29l-8.62,6.18h-104.17Z" fill="url(#e)"/>
</svg>