<?xml version="1.0" encoding="UTF-8"?>
<svg id="a" data-name="僦 1" xmlns="http://www.w3.org/2000/svg" xmlns:xlink="http://www.w3.org/1999/xlink" viewBox="0 0 880.74 810.5">
  <defs>
    <linearGradient id="b" data-name="譇銧寤摎縺誺20" x1="440.37" y1="874.7" x2="440.37" y2="-211.95" gradientUnits="userSpaceOnUse">
      <stop offset="0" stop-color="#fcdf3e"/>
      <stop offset=".11" stop-color="#fac32a"/>
      <stop offset=".13" stop-color="#fac42b"/>
      <stop offset=".32" stop-color="#fbd335"/>
      <stop offset=".55" stop-color="#fbdc3c"/>
      <stop offset=".91" stop-color="#fcdf3e"/>
    </linearGradient>
  </defs>
  <path d="M870.28,687.94L512.56,42.53C497.8,15.9,470.82,0,440.37,0s-57.43,15.9-72.19,42.53L10.46,687.94c-14.32,25.84-13.92,56.46,1.08,81.91,14.99,25.45,41.58,40.65,71.12,40.65h715.43c29.54,0,56.12-15.19,71.12-40.65,14.99-25.45,15.39-56.07,1.07-81.91Z" fill="url(#b)"/>
  <path d="M798.08,784.51H82.65c-20.24,0-38.45-10.41-48.72-27.85-10.27-17.44-10.55-38.41-.74-56.11L390.91,55.13c10.11-18.24,28.6-29.14,49.46-29.14s39.35,10.89,49.46,29.14l357.71,645.42c9.81,17.7,9.53,38.68-.74,56.11-10.27,17.44-28.49,27.85-48.72,27.85ZM440.37,38.99c-16.06,0-30.31,8.39-38.09,22.44L44.56,706.84c-7.56,13.63-7.34,29.79.57,43.22,7.91,13.43,21.94,21.45,37.53,21.45h715.43c15.59,0,29.61-8.02,37.52-21.45,7.91-13.43,8.12-29.59.57-43.22L478.46,61.43c-7.79-14.05-22.03-22.44-38.09-22.44Z" fill="#1d1d1b"/>
  <g>
    <polygon points="351.55 696.96 544.16 471.82 440.05 471.82 525.57 312.49 431.81 312.49 336.58 532.66 421.86 529.29 351.55 696.96" fill="#1d1d1b"/>
    <g>
      <path d="M356.75,654.92l5.35-12.76c-49.99-27.66-83.92-80.95-83.92-142.02,0-77.93,55.24-143.18,128.62-158.69l6.57-15.19c-84.25,13.03-148.95,86.04-148.95,173.88,0,66.77,37.39,124.98,92.33,154.78Z" fill="#1d1d1b"/>
      <path d="M521.62,344.11l-6.51,12.12c51.92,27.07,87.45,81.42,87.45,143.91,0,89.43-72.76,162.19-162.19,162.19-13.75,0-27.1-1.73-39.86-4.96l-9.88,11.55c15.78,4.66,32.47,7.17,49.74,7.17,97.02,0,175.95-78.93,175.95-175.95,0-67.73-38.47-126.63-94.71-156.03Z" fill="#1d1d1b"/>
    </g>
  </g>
</svg>