<?xml version="1.0" encoding="UTF-8"?>
<svg id="a" data-name="栝鍣 1" xmlns="http://www.w3.org/2000/svg" viewBox="0 0 471.85 469.09">
  <path d="M6.43,268.62c14.1,116.45,130.22,212.97,264.88,193.96,117.12-16.54,212.27-126.43,194.2-265.3C428.27-88.9-32.21-50.48,6.43,268.62h0Z" fill="#fff000" fill-rule="evenodd"/>
  <path d="M26.37,265.66c12.88,106.33,118.91,194.47,241.87,177.11,106.95-15.1,193.83-115.45,177.33-242.26C411.56-60.81-8.92-25.72,26.37,265.66h0Z" fill="#ffe500" fill-rule="evenodd"/>
  <path d="M2.34,269.22c14.35,118.53,132.55,216.77,269.6,197.42,119.21-16.83,216.05-128.68,197.66-270.03C431.7-94.67-36.99-55.56,2.34,269.22h0ZM22.63,266.21c13.11,108.23,121.03,197.94,246.18,180.27,108.85-15.37,197.28-117.51,180.49-246.57C414.69-66.07-13.28-30.35,22.63,266.21h0Z" fill-rule="evenodd"/>
  <path d="M190.12,241.34c2.81,23.24,25.99,42.5,52.86,38.71,23.37-3.3,42.36-25.23,38.76-52.95-7.43-57.11-99.33-49.44-91.62,14.24h0ZM437.67,234.08l-130.87-.05v.32c0,26.16-14.17,49.01-35.25,61.29,12.74,24.09,36.29,62.38,49.76,85.45l16.76,27.27c59.6-35.06,99.61-99.86,99.61-174.01v-.28h0ZM165.17,230.1l-130.95.32c-.02,1.31-.05,2.62-.05,3.93,0,74.17,40.03,138.98,99.66,174.03,11.09-16.42,51.45-87.23,65.8-113.14-20.71-12.37-34.59-35.01-34.59-60.89,0-1.43.05-2.85.13-4.25h0ZM135.26,59.47l65.73,113.19c10.31-5.85,22.23-9.19,34.93-9.19,16.06,0,30.87,5.34,42.75,14.34l65.07-114c-31.19-19.76-68.17-31.21-107.82-31.21-36.66,0-71.03,9.78-100.66,26.87h0Z" fill-rule="evenodd"/>
</svg>