<?xml version="1.0" encoding="UTF-8"?>
<svg id="a" data-name="圖層 2" xmlns="http://www.w3.org/2000/svg" viewBox="0 0 415.99 446.44">
  <path d="M368.43,365.83c-2.92,2.33-6.01,4.58-9.31,6.72-1.14.75-2.3,1.47-3.5,2.21-.48.27-.94.56-1.42.85-.37.22-.74.44-1.12.64-.37.22-.75.42-1.12.64-.76.44-1.54.87-2.34,1.28-1.58.87-3.22,1.7-4.89,2.51-.41.22-.82.41-1.25.61-.42.2-.83.4-1.27.6-.67.31-1.36.63-2.04.93-.7.31-1.39.63-2.11.93-.7.31-1.4.6-2.13.9-1.12.46-2.25.93-3.39,1.36-1.79.7-3.63,1.39-5.49,2.04-2.19.78-4.38,1.54-6.5,2.3-2.92,1.06-5.75,2.11-8.53,3.15-1.59.6-3.16,1.19-4.72,1.77h-.01c-1.54.6-3.07,1.2-4.57,1.77-2.97,1.16-5.85,2.3-8.63,3.43-.65.26-1.29.52-1.94.78-1.99.82-3.94,1.64-5.83,2.43-1.76.74-3.5,1.47-5.18,2.21-1.17.5-2.33,1.01-3.48,1.51-3.24,1.42-6.34,2.82-9.31,4.2-.74.34-1.49.7-2.21,1.04-.72.33-1.43.68-2.15,1.01-.7.34-1.4.67-2.1,1.01-.68.33-1.38.67-2.06,1-.67.33-1.34.65-2,.98-2.63,1.29-5.14,2.58-7.52,3.82-1.77.91-3.5,1.83-5.15,2.73-.11.05-.22.12-.33.18-.95.5-1.89,1.02-2.82,1.54-.64.35-1.28.72-1.91,1.08-.7.38-1.36.78-2.03,1.14-1.17.67-2.28,1.32-3.35,1.96-.9.52-1.76,1.05-2.6,1.55-.86.5-1.68,1.02-2.48,1.51-.76.48-1.51.95-2.22,1.4-.72.48-1.44.93-2.11,1.38-1.43.94-2.74,1.83-3.94,2.64-.45.33-.9.63-1.32.93-2.73,1.94-4.83,3.56-6.38,4.81-2.51,2.02-3.58,3.14-3.58,3.14,0,0-1.09-1.12-3.64-3.19-1.1-.9-2.48-1.96-4.17-3.2-.31-.23-.65-.48-1-.72-.41-.29-.82-.59-1.27-.9-.74-.52-1.53-1.06-2.34-1.64-.12-.08-.25-.16-.37-.25-.49-.33-1-.67-1.53-1.01-2.19-1.46-4.66-3.04-7.46-4.73-.26-.18-.53-.33-.8-.49-.34-.2-.68-.42-1.04-.61-.9-.56-1.83-1.09-2.79-1.65-.48-.29-.97-.56-1.46-.85-1.49-.84-3.05-1.73-4.68-2.63-.6-.34-1.21-.68-1.84-1.01-.63-.34-1.27-.7-1.91-1.04-1.06-.57-2.17-1.16-3.3-1.74-.29-.15-.57-.3-.86-.45-.64-.33-1.28-.65-1.94-1-.7-.37-1.42-.72-2.14-1.09-1.96-.99-4.01-2-6.13-3.03-1.09-.53-2.21-1.06-3.34-1.61-2.84-1.35-5.81-2.73-8.91-4.13-1.51-.68-3.07-1.38-4.65-2.07-.85-.38-1.69-.75-2.56-1.13-1.36-.57-2.75-1.17-4.14-1.76-3.46-1.47-7.07-2.97-10.84-4.5-2.41-.95-4.88-1.94-7.42-2.93h-.01c-1.5-.6-3.03-1.19-4.58-1.77-1.54-.59-3.11-1.19-4.7-1.79-2.19-.82-4.43-1.65-6.72-2.47-2.75-1.01-5.56-2.02-8.44-3.03-3.09-1.09-6.08-2.22-8.97-3.43-.59-.25-1.17-.49-1.74-.74-.26-.11-.53-.22-.8-.33-.71-.33-1.42-.64-2.14-.97-.76-.34-1.53-.7-2.28-1.05-.82-.38-1.61-.76-2.4-1.16-1.34-.65-2.62-1.32-3.9-1.99-.59-.33-1.19-.64-1.76-.97-1.28-.7-2.54-1.42-3.76-2.14-.79-.48-1.58-.95-2.36-1.44-.07-.04-.14-.08-.2-.12-.59-.37-1.16-.75-1.73-1.13h-.01c-.52-.33-1.01-.67-1.51-1.01-.63-.42-1.24-.83-1.85-1.27-.59-.41-1.19-.82-1.76-1.25-.64-.45-1.28-.93-1.89-1.4-.82-.61-1.6-1.23-2.37-1.85-4.48-3.61-8.55-7.44-12.14-11.48-5.21-5.79-9.53-12.01-13-18.59-.19-.33-.37-.67-.55-1.01-10.59-20.55-13.3-44.63-9.76-70.51.91-6.71,2.25-13.55,3.98-20.47.29-1.16.59-2.34.9-3.52.25-.9.49-1.81.75-2.71.25-.85.48-1.69.74-2.56.37-1.25.76-2.52,1.15-3.79.3-1,.63-1.98.94-2.97.08-.26.19-.55.27-.82.44-1.34.89-2.67,1.36-4.01.11-.34.22-.67.35-1.01,1.36-3.93,2.86-7.86,4.47-11.83.44-1.1.89-2.19,1.36-3.31.08-.23.18-.46.29-.7.37-.9.75-1.79,1.13-2.67.41-.93.82-1.87,1.24-2.79.14-.37.3-.72.48-1.08.55-1.25,1.13-2.52,1.72-3.79.76-1.65,1.55-3.3,2.34-4.96,1.01-2.09,1.98-4.17,2.88-6.23.42-.95.85-1.89,1.24-2.85,3-7.1,5.4-13.98,7.28-20.64.16-.6.33-1.19.48-1.79.27-.99.53-1.98.78-2.94.23-.94.46-1.87.67-2.79.2-.86.4-1.72.57-2.58.34-1.54.64-3.07.91-4.58,1.95-10.67,2.58-20.61,2.29-29.7-.01-.63-.04-1.24-.07-1.84-.05-1.4-.14-2.78-.25-4.14-.04-.65-.1-1.29-.16-1.94-.11-1.28-.25-2.55-.4-3.79-.2-1.77-.45-3.49-.72-5.18-.04-.25-.08-.5-.14-.75-4.99-29.91-18.74-47.17-18.74-47.17l43.3-35.98c8.22,4.57,16.04,8.12,23.49,10.82,23.81,8.63,43.63,8.49,59.47,4.48C194.26,23.59,210.06,0,210.06,0c0,0,1.09,1.64,3.28,4.18,8.37,9.76,32.73,32.94,73.21,29.77,6.86-.53,14.19-1.81,21.99-4.06,6.76-1.95,13.89-4.61,21.36-8.12,3.48-1.64,7.02-3.45,10.63-5.45l6.46,5.37,24.3,20.2,12.54,10.41s-14.12,17.75-18.95,48.42c-.05.38-.12.76-.18,1.16h0c-.19,1.27-.35,2.55-.5,3.84-.07.56-.14,1.12-.19,1.69-.11,1.04-.2,2.1-.29,3.16-.05.67-.11,1.34-.15,2.02-.18,2.79-.27,5.67-.27,8.63,0,.87.01,1.76.03,2.66.01.87.04,1.74.08,2.63.03.94.07,1.88.14,2.82.04.93.11,1.85.19,2.79.07,1.04.16,2.09.27,3.15.08.8.18,1.61.27,2.43,0,.07.01.12.01.19.12.95.25,1.91.38,2.88.14.98.29,1.96.45,2.94h0c.08.61.19,1.21.3,1.81.1.6.2,1.21.33,1.81.22,1.21.46,2.43.72,3.67.1.5.22,1.02.33,1.54.44,1.96.91,3.95,1.44,5.96.11.42.22.85.34,1.27.26.94.52,1.88.79,2.82,1.84,6.32,4.14,12.85,6.99,19.6.4.93.8,1.87,1.21,2.81.3.67.6,1.34.9,1.99.22.52.46,1.04.71,1.55.41.89.83,1.77,1.25,2.67.64,1.32,1.27,2.64,1.88,3.97.63,1.34,1.25,2.66,1.84,3.99.4.87.78,1.73,1.14,2.59.04.05.07.14.1.2.4.86.76,1.72,1.12,2.58.2.49.42.97.63,1.46.45,1.05.89,2.1,1.32,3.15.68,1.68,1.35,3.34,2,5,.26.7.52,1.39.79,2.09.12.35.26.71.4,1.06.03.07.05.11.07.18.29.78.59,1.57.87,2.36.3.84.61,1.69.9,2.55.11.27.2.56.3.83.48,1.39.95,2.78,1.4,4.16.19.59.38,1.17.57,1.76.23.68.45,1.38.65,2.06.29.9.56,1.8.82,2.69.55,1.83,1.06,3.65,1.54,5.47.18.6.34,1.21.49,1.83.23.85.44,1.68.64,2.52,12.17,48.73,5,92.85-31.5,122.14Z" fill="#2f3a54"/>
</svg>