<?xml version="1.0" encoding="UTF-8"?>
<svg id="a" data-name="Layer 1" xmlns="http://www.w3.org/2000/svg" viewBox="0 0 566.03 566.03">
  <path d="M8.63,262.09L262.09,8.63c11.51-11.51,30.35-11.51,41.85,0l253.45,253.45c11.51,11.51,11.51,30.34,0,41.86l-253.45,253.45c-11.51,11.51-30.34,11.51-41.85,0L8.63,303.94c-11.51-11.51-11.51-30.35,0-41.86h0Z" fill="#f08218" fill-rule="evenodd"/>
  <path d="M73.34,197.38L262.09,8.63c11.51-11.51,30.35-11.51,41.85,0l251.93,252.87c-80.35-57.6-203.61-93.47-270-93.47s-173.04,10.54-212.54,29.35h0Z" fill="#e8a873" fill-rule="evenodd"/>
  <path d="M31.41,283.01l251.6,251.6,251.6-251.6L283.01,31.41,31.41,283.01h0ZM43.9,283.01l239.11,239.11,239.11-239.11L283.01,43.9,43.9,283.01h0Z" fill="#231815" fill-rule="evenodd"/>
  <path d="M416.26,164.66L283.01,31.41l-101.86,101.86c5.08-1.09,10.21-2.06,15.38-2.89l86.48-86.48,112.39,112.39c6.99,2.63,13.94,5.43,20.85,8.36h0Z" fill="#635f5e" fill-rule="evenodd"/>
  <polygon points="283.01 474.16 287.73 476.88 292.44 479.6 292.44 485.05 292.44 490.49 287.73 493.21 283.01 495.94 278.3 493.21 273.58 490.49 273.58 485.05 273.58 479.6 278.3 476.88 283.01 474.16 283.01 474.16" fill="#727171" fill-rule="evenodd"/>
  <polygon points="283.01 477.13 286.44 479.11 289.87 481.09 289.87 485.05 289.87 489.01 286.44 490.99 283.01 492.97 279.58 490.99 276.16 489.01 276.16 485.05 276.16 481.09 279.58 479.11 283.01 477.13 283.01 477.13" fill="#3e3a39" fill-rule="evenodd"/>
  <polygon points="283.01 58.97 287.73 61.69 292.44 64.41 292.44 69.86 292.44 75.3 287.73 78.02 283.01 80.75 278.3 78.02 273.58 75.3 273.58 69.86 273.58 64.41 278.3 61.69 283.01 58.97 283.01 58.97" fill="#727171" fill-rule="evenodd"/>
  <polygon points="283.01 61.94 286.44 63.92 289.87 65.9 289.87 69.86 289.87 73.82 286.44 75.8 283.01 77.78 279.58 75.8 276.16 73.82 276.16 69.86 276.16 65.9 279.58 63.92 283.01 61.94 283.01 61.94" fill="#3e3a39" fill-rule="evenodd"/>
  <path d="M265.72,175.93c66.09,0,119.68,17.03,119.68,38.03s-53.59,38.03-119.68,38.03-119.68-17.03-119.68-38.03,53.59-38.03,119.68-38.03h0Z" fill="#231815" fill-rule="evenodd"/>
  <path d="M248.9,186.58c50.6,0,91.63,13.04,91.63,29.12s-41.03,29.12-91.63,29.12-91.63-13.04-91.63-29.12,41.03-29.12,91.63-29.12h0Z" fill="#f08218" fill-rule="evenodd"/>
  <path d="M261.66,201.13c47.04,0,85.19,12.12,85.19,27.07s-38.15,27.07-85.19,27.07-85.19-12.12-85.19-27.07,38.15-27.07,85.19-27.07h0Z" fill="#231815" fill-rule="evenodd"/>
  <path d="M267.24,225.02c47.04,0,85.19,12.12,85.19,27.07s-38.15,27.07-85.19,27.07-85.19-12.12-85.19-27.07,38.15-27.07,85.19-27.07h0Z" fill="#231815" fill-rule="evenodd"/>
  <path d="M254.5,252.09c37.35,0,67.65,9.63,67.65,21.5s-30.29,21.5-67.65,21.5-67.65-9.63-67.65-21.5,30.29-21.5,67.65-21.5h0Z" fill="#231815" fill-rule="evenodd"/>
  <path d="M239.73,269.87c37.36,0,67.65,9.63,67.65,21.5s-30.29,21.5-67.65,21.5-67.65-9.63-67.65-21.5,30.29-21.5,67.65-21.5h0Z" fill="#231815" fill-rule="evenodd"/>
  <path d="M231.46,292.52c37.36,0,67.65,9.63,67.65,21.5s-30.29,21.5-67.65,21.5-67.65-9.63-67.65-21.5,30.29-21.5,67.65-21.5h0Z" fill="#231815" fill-rule="evenodd"/>
  <path d="M216.98,311.44c24.37,0,44.13,6.28,44.13,14.02s-19.76,14.02-44.13,14.02-44.13-6.28-44.13-14.02,19.76-14.02,44.13-14.02h0Z" fill="#231815" fill-rule="evenodd"/>
  <path d="M237.2,321.2c32.74,0,59.28,8.44,59.28,18.84s-26.55,18.84-59.28,18.84-59.28-8.44-59.28-18.84,26.55-18.84,59.28-18.84h0Z" fill="#231815" fill-rule="evenodd"/>
  <path d="M258.11,334.84c35.73,0,64.71,9.21,64.71,20.56s-28.98,20.56-64.71,20.56-64.71-9.21-64.71-20.56,28.98-20.56,64.71-20.56h0Z" fill="#231815" fill-rule="evenodd"/>
  <path d="M287.44,357.06c26.5,0,47.99,6.83,47.99,15.25s-21.49,15.25-47.99,15.25-47.99-6.83-47.99-15.25,21.49-15.25,47.99-15.25h0Z" fill="#231815" fill-rule="evenodd"/>
  <path d="M307.8,371.51c29.06,0,52.63,7.49,52.63,16.72s-23.57,16.72-52.63,16.72-52.63-7.49-52.63-16.72,23.57-16.72,52.63-16.72h0Z" fill="#231815" fill-rule="evenodd"/>
  <path d="M318.76,390.81c24.57,0,44.49,6.33,44.49,14.14s-19.92,14.14-44.49,14.14-44.49-6.33-44.49-14.14,19.92-14.14,44.49-14.14h0Z" fill="#231815" fill-rule="evenodd"/>
  <path d="M332.27,404.93c17.21,0,31.17,4.44,31.17,9.91s-13.96,9.91-31.17,9.91-31.17-4.44-31.17-9.91,13.96-9.91,31.17-9.91h0Z" fill="#231815" fill-rule="evenodd"/>
  <path d="M331.76,414.67c12.21,0,22.12,3.15,22.12,7.03s-9.91,7.03-22.12,7.03-22.12-3.15-22.12-7.03,9.9-7.03,22.12-7.03h0Z" fill="#231815" fill-rule="evenodd"/>
  <path d="M332.04,425.52c8.38,0,15.17,2.16,15.17,4.82s-6.79,4.82-15.17,4.82-15.17-2.16-15.17-4.82,6.79-4.82,15.17-4.82h0Z" fill="#231815" fill-rule="evenodd"/>
  <path d="M328,432.75c5.15,0,9.32,1.33,9.32,2.96s-4.17,2.96-9.32,2.96-9.32-1.33-9.32-2.96,4.17-2.96,9.32-2.96h0Z" fill="#231815" fill-rule="evenodd"/>
  <path d="M274.38,201.13c33.09,0,59.92,8.53,59.92,19.04s-26.83,19.04-59.92,19.04-59.92-8.53-59.92-19.04,26.83-19.04,59.92-19.04h0Z" fill="#f08218" fill-rule="evenodd"/>
  <path d="M310.53,297.3c-7.52,9.27-34,16.12-65.51,16.12-37.36,0-67.65-9.63-67.65-21.5,0-2.68,1.55-5.24,4.36-7.6-1.39,1.72-2.14,3.52-2.14,5.38,0,11.87,30.29,21.5,67.65,21.5,28.93,0,53.62-5.77,63.29-13.89h0Z" fill="#f08218" fill-rule="evenodd"/>
  <path d="M312.22,284.7c-12.33,5.28-32.09,8.71-54.38,8.71-37.35,0-67.65-9.63-67.65-21.5,0-5.3,6.04-10.15,16.06-13.9-8.34,3.57-13.27,8-13.27,12.79,0,11.87,30.29,21.5,67.65,21.5,20.68,0,39.18-2.95,51.59-7.6h0Z" fill="#f08218" fill-rule="evenodd"/>
  <path d="M294.67,323.03c-11.79,6.31-33.44,10.54-58.2,10.54-37.36,0-67.65-9.63-67.65-21.5,0-4.48,4.31-8.63,11.68-12.07-6,3.21-9.45,6.96-9.45,10.96,0,11.87,30.29,21.5,67.65,21.5,23.27,0,43.8-3.74,55.97-9.42h0Z" fill="#f08218" fill-rule="evenodd"/>
  <path d="M303.82,175.24c44.41,5.56,75.84,19.31,75.84,35.39,0,21-53.59,38.03-119.68,38.03-17.19,0-33.53-1.15-48.3-3.23,13.58,1.7,28.37,2.63,43.84,2.63,66.09,0,119.68-17.03,119.68-38.03,0-15.54-29.34-28.9-71.38-34.8h0Z" fill="#f08218" fill-rule="evenodd"/>
  <path d="M300.54,371.3c-10.87,2.62-24.41,4.18-39.11,4.18-35.73,0-64.71-9.21-64.71-20.56,0-7.28,11.91-13.68,29.88-17.33-15.55,3.75-25.6,9.69-25.6,16.38,0,11.35,28.98,20.56,64.71,20.56,12.82,0,24.78-1.19,34.83-3.23h0Z" fill="#f08218" fill-rule="evenodd"/>
  <path d="M360.34,395.09c-7.41,6.38-26.73,10.94-49.39,10.94-29.06,0-52.63-7.49-52.63-16.72,0-2.63,1.91-5.12,5.32-7.33-2.09,1.8-3.23,3.75-3.23,5.78,0,9.23,23.57,16.72,52.63,16.72,20.78,0,38.75-3.83,47.31-9.39h0Z" fill="#f08218" fill-rule="evenodd"/>
</svg>